Coordinates
version=1
nRows=14
nColumns=40
inDegrees=yes

Units are S.I. units (second, meters, Newtons, ...)
Angles are in degrees.

endheader
time	pelvis_tilt	pelvis_list	pelvis_rotation	pelvis_tx	pelvis_ty	pelvis_tz	hip_flexion_r	hip_adduction_r	hip_rotation_r	knee_angle_r	knee_angle_r_beta	ankle_angle_r	subtalar_angle_r	mtp_angle_r	hip_flexion_l	hip_adduction_l	hip_rotation_l	knee_angle_l	knee_angle_l_beta	ankle_angle_l	subtalar_angle_l	mtp_angle_l	lumbar_extension	lumbar_bending	lumbar_rotation	arm_flex_r	arm_add_r	arm_rot_r	elbow_flex_r	pro_sup_r	wrist_flex_r	wrist_dev_r	arm_flex_l	arm_add_l	arm_rot_l	elbow_flex_l	pro_sup_l	wrist_flex_l	wrist_dev_l
      7.88128571	     -6.07868846	     -4.42356376	     -0.48179747	      0.75673686	      0.93249965	      0.42908771	     32.76705027	     -5.07489731	     -7.21735402	     57.11018380	     57.11018380	      3.08062496	    -10.63976544	     -1.09393901	     13.74055706	     -3.88751425	     -8.58928752	     18.82557869	     18.82557869	     13.94930966	     -6.08570064	     -0.35817858	    -10.33008307	      5.24655778	      1.09724730	      1.15642774	    -13.55481563	     -6.25031670	     26.75280375	     46.80262233	      0.00000000	      0.00000000	     12.44608534	    -17.59378823	     -8.03683171	     64.58379138	     46.97445363	      0.00000000	      0.00000000
      7.89507143	     -5.95442780	     -4.28035908	     -0.79841667	      0.75638298	      0.93288188	      0.42943892	     33.02595427	     -5.00907730	     -7.27204301	     54.02510494	     54.02510494	      3.29169032	    -10.12778594	     -1.33505992	     12.69751310	     -3.76256995	     -9.15225899	     18.08408485	     18.08408485	     14.06032654	     -5.63846354	     -0.74014950	    -10.62751471	      5.06110767	      1.44866508	     -0.73811122	    -13.56796347	     -5.88052345	     25.86070742	     46.78718106	      0.00000000	      0.00000000	     13.59455777	    -17.62376711	     -8.48789087	     66.22968685	     47.04788201	      0.00000000	      0.00000000
      7.90885714	     -5.95337577	     -4.19390255	     -1.04954179	      0.75592233	      0.93294541	      0.42986191	     33.22809664	     -4.88989930	     -7.45825865	     50.53940804	     50.53940804	      3.29080288	     -9.55394952	     -1.78683753	     11.88056305	     -3.68189915	     -9.51458964	     17.47235444	     17.47235444	     14.13194775	     -5.30082754	     -1.25548217	    -10.76948693	      4.97881437	      1.40920610	     -2.55256407	    -13.48218525	     -5.48014212	     25.45626842	     46.74497128	      0.00000000	      0.00000000	     14.43206823	    -17.86605064	     -9.01261121	     67.72435411	     47.12594262	      0.00000000	      0.00000000
      7.92264286	     -6.04164090	     -4.16822722	     -1.26783452	      0.75553869	      0.93270545	      0.43041647	     33.22913864	     -4.67512919	     -7.81435456	     46.51544341	     46.51544341	      2.78104495	     -9.21210464	     -3.73092351	     11.16791132	     -3.64496496	     -9.73642835	     16.85202557	     16.85202557	     14.00236877	     -5.30249222	     -2.31625669	    -10.74245171	      4.95949684	      1.03138457	     -4.45502196	    -13.53176316	     -4.30975113	     26.09870061	     46.57264773	      0.00000000	      0.00000000	     14.89458720	    -18.21296274	     -9.86630399	     69.31487450	     47.26291458	      0.00000000	      0.00000000
      7.93642857	     -6.28369566	     -3.83297863	     -1.48678426	      0.75490096	      0.93190297	      0.43106166	     33.49232348	     -4.69361110	     -7.92387268	     42.66981414	     42.66981414	      3.00668742	     -8.52246998	     -3.23630874	     10.88672787	     -3.31651332	     -9.97962261	     16.72795158	     16.72795158	     14.27719197	     -5.31750050	     -2.46272692	    -10.49106390	      4.58148744	      0.58535800	     -5.83826076	    -13.32633869	     -4.26955132	     25.67919612	     46.57298607	      0.00000000	      0.00000000	     15.67605149	    -18.83405409	    -10.15322720	     69.80631410	     47.29607858	      0.00000000	      0.00000000
      7.95021429	     -6.16468638	     -3.98970756	     -1.68458468	      0.75489207	      0.93197143	      0.43188932	     32.80290867	     -4.31042300	     -8.78410061	     38.12311685	     38.12311685	      3.09905436	     -6.93602740	     -2.93207161	      9.75977375	     -3.46220716	    -10.22385234	     15.82399625	     15.82399625	     14.49809117	     -4.89945839	     -2.65165515	    -10.74994485	      4.80103603	      1.00943044	     -7.69572198	    -13.21141905	     -4.20713844	     25.50158012	     46.55243651	      0.00000000	      0.00000000	     16.53461613	    -18.56057112	    -10.51864361	     71.46144839	     47.36222989	      0.00000000	      0.00000000
      7.96400000	     -6.40560245	     -3.86273438	     -1.88063751	      0.75456320	      0.93107436	      0.43291237	     32.57386824	     -4.03991075	     -9.28944811	     33.75668700	     33.75668700	      3.04198022	     -5.79187508	     -2.22331231	      9.34575354	     -3.35752261	    -10.39167957	     15.48243937	     15.48243937	     14.77593174	     -4.83854691	     -2.84878974	    -10.46878570	      4.67390178	      0.78493691	     -9.01014870	    -12.93711852	     -4.21116616	     25.29381563	     46.54683386	      0.00000000	      0.00000000	     17.15085267	    -18.93965560	    -10.78783945	     72.16604818	     47.39778603	      0.00000000	      0.00000000
      7.97778571	     -6.32119729	     -3.81415645	     -2.01785317	      0.75476383	      0.93058954	      0.43390341	     31.71483702	     -3.73152735	    -10.19508895	     29.26394494	     29.26394494	      2.97169467	     -4.05143142	     -1.38245921	      8.42515554	     -3.30012744	    -10.57240693	     14.91948245	     14.91948245	     15.02371051	     -4.60253779	     -3.16816577	    -10.62165853	      4.68640395	      0.83238891	    -10.46785446	    -12.85249117	     -4.32217689	     25.25988223	     46.54019498	      0.00000000	      0.00000000	     17.68350431	    -18.87847592	    -11.06750714	     73.36968665	     47.44632603	      0.00000000	      0.00000000
      7.99157143	     -6.33237057	     -3.63575096	     -2.18521177	      0.75510335	      0.92968535	      0.43511316	     30.98508201	     -3.49131401	    -11.09634524	     25.13665357	     25.13665357	      2.82989238	     -2.19875465	     -0.27553081	      7.61274263	     -3.12020348	    -10.80611856	     14.37874959	     14.37874959	     15.25000224	     -4.39684194	     -3.60799747	    -10.57932512	      4.52878493	      0.84819638	    -11.78321246	    -12.62026408	     -4.50013926	     25.43609921	     46.53041474	      0.00000000	      0.00000000	     18.10439473	    -18.92083940	    -11.37349667	     74.54957528	     47.49651263	      0.00000000	      0.00000000
      8.00535714	     -6.32472307	     -3.43477142	     -2.32782119	      0.75569510	      0.92864286	      0.43641080	     30.23973535	     -3.24624803	    -12.05703610	     21.45252869	     21.45252869	      2.61713154	     -0.34271382	      1.14623661	      6.77032616	     -2.91408819	    -11.00424513	     13.84030479	     13.84030479	     15.45510126	     -4.20277903	     -4.10307513	    -10.55197267	      4.38893210	      0.83460436	    -12.97413486	    -12.39237037	     -4.72460169	     25.68232624	     46.52243302	      0.00000000	      0.00000000	     18.37898826	    -18.93772267	    -11.63787877	     75.65806003	     47.54199303	      0.00000000	      0.00000000
      8.01914286	     -6.34738917	     -3.19324807	     -2.49059063	      0.75647993	      0.92733742	      0.43783776	     29.78010263	     -3.12766551	    -13.23675276	     18.81356147	     18.81356147	      3.43607271	      1.96844309	      5.27296446	      5.88215178	     -2.63663456	    -11.10660527	     13.12627421	     13.12627421	     15.16581890	     -4.36075011	     -5.72574685	    -10.47606055	      4.17638653	      0.68623517	    -14.33744173	    -12.12123451	     -5.81641096	     27.35968522	     46.50427128	      0.00000000	      0.00000000	     18.18541199	    -18.96046271	    -12.25253493	     77.46141314	     47.64960739	      0.00000000	      0.00000000
      8.03292857	     -6.35196924	     -3.01180335	     -2.63117660	      0.75756116	      0.92600941	      0.43948862	     29.17638442	     -2.81945072	    -14.08065005	     16.35832354	     16.35832354	      2.97533182	      3.14468455	      6.23936401	      5.05488156	     -2.46487318	    -11.22156860	     12.66635673	     12.66635673	     15.52539944	     -4.22947678	     -5.90268960	    -10.29882822	      4.06921922	      0.75582428	    -15.03586507	    -11.87800172	     -5.85561729	     27.13029608	     46.50763509	      0.00000000	      0.00000000	     18.39255646	    -18.85530319	    -12.26900638	     77.95633138	     47.66513450	      0.00000000	      0.00000000
      8.04671429	     -6.39029287	     -2.79141193	     -2.77535259	      0.75883928	      0.92451932	      0.44128204	     28.74876142	     -2.59853294	    -14.88077563	     14.69392505	     14.69392505	      2.59864594	      4.11058088	      6.95676533	      4.29077917	     -2.26661390	    -11.36885939	     12.27239268	     12.27239268	     15.89288436	     -4.09623655	     -6.07619613	    -10.06167405	      3.92190514	      0.83234492	    -15.53348427	    -11.61758798	     -5.90405556	     27.04968961	     46.50753157	      0.00000000	      0.00000000	     18.43834072	    -18.76762148	    -12.29878821	     78.46844276	     47.67950934	      0.00000000	      0.00000000
      8.06050000	     -6.37356787	     -2.65074569	     -2.89744195	      0.76037507	      0.92311428	      0.44315912	     28.33203985	     -2.36822417	    -15.62217381	     13.68909058	     13.68909058	      2.23206672	      4.84109117	      7.38304621	      3.47933795	     -2.16257436	    -11.45789640	     11.94595752	     11.94595752	     16.29992640	     -3.97277219	     -6.20716428	     -9.83906213	      3.87221630	      0.88418395	    -15.92032413	    -11.38471020	     -5.95139594	     27.00090708	     46.50742206	      0.00000000	      0.00000000	     18.30601991	    -18.61915479	    -12.31622101	     78.93226075	     47.69188200	      0.00000000	      0.00000000
